<?xml version="1.0" encoding="UTF-8" standalone="no"?>
<svg xmlns:dc="http://purl.org/dc/elements/1.1/" xmlns:cc="http://creativecommons.org/ns#" xmlns:rdf="http://www.w3.org/1999/02/22-rdf-syntax-ns#" xmlns:svg="http://www.w3.org/2000/svg" xmlns="http://www.w3.org/2000/svg" xmlns:sodipodi="http://sodipodi.sourceforge.net/DTD/sodipodi-0.dtd" xmlns:inkscape="http://www.inkscape.org/namespaces/inkscape" width="1265" height="400" viewBox="0 0 1265 400.00001" id="svg3451" version="1.1" inkscape:version="0.91 r13725" sodipodi:docname="logo-wide-text.svg">
  <sodipodi:namedview pagecolor="#ffffff" bordercolor="#666666" borderopacity="1" objecttolerance="10" gridtolerance="10" guidetolerance="10" inkscape:pageopacity="0" inkscape:pageshadow="2" inkscape:window-width="1280" inkscape:window-height="960" id="namedview58" showgrid="false" inkscape:zoom="0.425941" inkscape:cx="730.10994" inkscape:cy="89.177042" inkscape:window-x="0" inkscape:window-y="27" inkscape:window-maximized="1" inkscape:current-layer="svg3451"/>
  <defs id="defs3453"/>
  <metadata id="metadata3456">
    <rdf:RDF>
      <cc:Work rdf:about="">
        <dc:format>image/svg+xml</dc:format>
        <dc:type rdf:resource="http://purl.org/dc/dcmitype/StillImage"/>
        <dc:title/>
      </cc:Work>
    </rdf:RDF>
  </metadata>
  <g id="layer1" transform="translate(0,-652.36216)">
    <g id="g3529" transform="translate(84.999997,0)">
      <g transform="matrix(4.5858755,0,0,-4.5998425,143.74977,994.4971)" id="g132">
        <path id="path134" style="fill:#4f4c4d;fill-opacity:1;fill-rule:nonzero;stroke:none" d="m 0,0 -12.54,0 c -0.708,0 -1.288,0.24 -1.288,0.54 0,0.298 0.58,0.541 1.288,0.541 L 0,1.081 C 0.71,1.081 1.287,0.838 1.287,0.54 1.287,0.24 0.71,0 0,0 m 0,-4.316 -12.54,0 c -0.708,0 -1.288,0.241 -1.288,0.539 0,0.298 0.58,0.539 1.288,0.539 l 12.54,0 c 0.71,0 1.287,-0.241 1.287,-0.539 C 1.287,-4.075 0.71,-4.316 0,-4.316 m 4.774,2.698 c 0,1.017 -0.695,1.866 -1.633,2.116 0.938,0.253 1.633,1.1 1.633,2.118 0,1.217 -0.985,2.203 -2.201,2.203 l -17.686,0 c -1.216,0 -2.201,-0.986 -2.201,-2.203 0,-1.018 0.696,-1.865 1.635,-2.118 -0.939,-0.25 -1.635,-1.099 -1.635,-2.116 0,-1.017 0.696,-1.866 1.635,-2.116 -0.939,-0.254 -1.635,-1.101 -1.635,-2.118 0,-1.216 0.985,-2.201 2.201,-2.201 l 17.686,0 c 1.216,0 2.201,0.985 2.201,2.201 0,1.017 -0.695,1.864 -1.633,2.118 0.938,0.25 1.633,1.099 1.633,2.116"/>
      </g>
      <g transform="matrix(4.5858755,0,0,-4.5998425,81.076907,1035.1726)" id="g136">
        <path id="path138" style="fill:#4f4c4d;fill-opacity:1;fill-rule:nonzero;stroke:none" d="m 0,0 c 1.678,-2.263 4.364,-3.737 7.397,-3.737 3.034,0 5.72,1.474 7.398,3.737 L 0,0 Z"/>
      </g>
      <g transform="matrix(4.5858755,0,0,-4.5998425,114.45887,665.56374)" id="g140">
        <path id="path142" style="fill:#f0d103;fill-opacity:1;fill-rule:nonzero;stroke:none" d="m 0,0 c -0.262,0 -0.517,-0.01 -0.768,-0.026 -15.543,-0.573 -21.32,-13.82 -21.32,-22.037 0,-5.625 2.125,-9.494 4.375,-13.584 1.03,-1.872 2.092,-3.806 2.986,-5.961 2.995,-7.218 4.344,-12.333 4.51,-17.106 0.15,-4.261 1.358,-4.261 2.634,-4.261 l 15.4,0 c 1.278,0 2.486,0 2.635,4.261 0.169,4.773 1.516,9.888 4.51,17.106 0.893,2.155 1.956,4.089 2.985,5.961 2.252,4.09 4.377,7.959 4.377,13.584 0,8.217 -5.776,21.464 -21.284,22.037 C 0.747,-0.01 0.49,0 0.222,0 L 0.091,-0.004 0.011,0 0,0 Z m 7.817,-65.844 -15.4,0 c -3.633,0 -5.332,2.168 -5.502,7.029 -0.154,4.409 -1.437,9.225 -4.292,16.11 -0.835,2.007 -1.858,3.871 -2.85,5.673 -2.327,4.231 -4.732,8.605 -4.732,14.969 0,9.972 7.461,24.294 24.049,24.903 0.273,0.018 0.594,0.03 0.923,0.03 l 0.209,0 c 0.33,0 0.649,-0.012 0.963,-0.032 16.55,-0.607 24.01,-14.929 24.01,-24.901 0,-6.364 -2.406,-10.738 -4.734,-14.969 -0.99,-1.802 -2.017,-3.666 -2.848,-5.673 -2.854,-6.885 -4.138,-11.701 -4.293,-16.11 -0.171,-4.861 -1.866,-7.029 -5.503,-7.029"/>
      </g>
      <g transform="matrix(4.5858755,0,0,-4.5998425,84.375062,777.90477)" id="g144">
        <path id="path146" style="fill:#4f4c4d;fill-opacity:1;fill-rule:nonzero;stroke:none" d="m 0,0 c -3.972,0.951 -6.421,4.938 -5.471,8.909 0.949,3.971 4.937,6.42 8.907,5.471 C 7.408,13.43 9.857,9.442 8.908,5.472 7.958,1.501 3.971,-0.949 0,0 m 12.635,4.364 c 0.017,0.069 0.035,0.135 0.052,0.204 0.192,0.806 0.291,1.613 0.308,2.408 L 10.832,7.748 C 10.815,8.004 10.787,8.26 10.75,8.514 l 1.934,1.318 c -0.204,0.842 -0.504,1.655 -0.89,2.424 L 9.518,11.933 c -0.151,0.245 -0.313,0.486 -0.486,0.718 l 1.095,2.055 c -0.563,0.632 -1.198,1.2 -1.898,1.695 l -1.87,-1.348 c -0.262,0.156 -0.537,0.3 -0.818,0.428 l 0.014,2.317 c -0.393,0.14 -0.799,0.261 -1.216,0.361 -0.415,0.1 -0.831,0.173 -1.246,0.225 L 2.059,16.315 C 1.748,16.325 1.44,16.323 1.134,16.302 l -1.059,2.049 c -0.847,-0.126 -1.671,-0.348 -2.458,-0.655 l 0.047,-2.327 c -0.26,-0.13 -0.513,-0.27 -0.759,-0.422 l -1.883,1.317 c -0.692,-0.511 -1.327,-1.1 -1.892,-1.759 l 1.131,-2.051 c -0.148,-0.208 -0.289,-0.423 -0.42,-0.646 l -2.278,0.291 C -8.782,11.383 -9.058,10.618 -9.25,9.813 -9.266,9.744 -9.281,9.675 -9.296,9.607 L -7.341,8.313 C -7.369,8.098 -7.386,7.879 -7.397,7.664 L -9.556,6.858 C -9.53,5.95 -9.394,5.056 -9.156,4.197 L -6.821,3.964 C -6.758,3.793 -6.686,3.625 -6.613,3.459 L -8.154,1.741 c 0.442,-0.801 0.98,-1.547 1.604,-2.218 l 2.17,0.873 c 0.116,-0.107 0.235,-0.208 0.358,-0.305 l -0.569,-2.249 c 0.753,-0.509 1.578,-0.933 2.463,-1.253 l 1.512,1.777 c 0.071,-0.016 0.14,-0.038 0.211,-0.054 0.072,-0.018 0.144,-0.029 0.215,-0.045 l 0.544,-2.271 c 0.934,-0.115 1.861,-0.111 2.763,10e-4 l 0.51,2.265 c 0.153,0.032 0.306,0.068 0.457,0.109 l 1.541,-1.76 c 0.859,0.319 1.676,0.739 2.433,1.253 L 7.46,0.096 c 0.141,0.115 0.28,0.23 0.415,0.354 l 2.189,-0.845 c 0.6,0.658 1.125,1.393 1.56,2.192 l -1.562,1.692 c 0.088,0.197 0.169,0.4 0.244,0.609 l 2.329,0.266 z"/>
      </g>
      <g transform="matrix(4.5858755,0,0,-4.5998425,143.5191,830.89266)" id="g148">
        <path id="path150" style="fill:#4f4c4d;fill-opacity:1;fill-rule:nonzero;stroke:none" d="m 0,0 c -2.69,0.645 -4.349,3.348 -3.707,6.036 0.644,2.69 3.345,4.349 6.035,3.707 C 5.02,9.099 6.678,6.397 6.035,3.707 5.392,1.018 2.689,-0.642 0,0 m 8.56,2.957 c 0.011,0.047 0.024,0.092 0.034,0.138 0.131,0.547 0.199,1.093 0.21,1.632 L 7.338,5.249 C 7.328,5.423 7.309,5.595 7.284,5.769 L 8.593,6.661 C 8.455,7.232 8.252,7.783 7.991,8.303 L 6.448,8.085 C 6.345,8.252 6.236,8.413 6.12,8.571 L 6.861,9.962 C 6.479,10.392 6.05,10.776 5.575,11.111 L 4.308,10.199 C 4.13,10.304 3.945,10.401 3.753,10.488 l 0.01,1.57 C 3.496,12.152 3.222,12.236 2.94,12.302 2.659,12.37 2.377,12.419 2.096,12.454 L 1.395,11.052 c -0.21,0.009 -0.419,0.007 -0.626,-0.008 l -0.718,1.389 c -0.574,-0.086 -1.132,-0.235 -1.665,-0.444 l 0.031,-1.576 C -1.758,10.325 -1.93,10.229 -2.097,10.127 L -3.373,11.02 C -3.841,10.673 -4.271,10.275 -4.653,9.826 L -3.888,8.439 C -3.988,8.298 -4.083,8.151 -4.172,7.999 L -5.715,8.198 C -5.949,7.713 -6.136,7.194 -6.266,6.648 -6.277,6.602 -6.287,6.556 -6.298,6.509 L -4.973,5.633 C -4.991,5.485 -5.003,5.34 -5.011,5.193 L -6.473,4.647 c 0.017,-0.615 0.11,-1.22 0.27,-1.802 L -4.621,2.686 C -4.578,2.57 -4.529,2.456 -4.479,2.344 L -5.524,1.181 c 0.299,-0.544 0.665,-1.048 1.086,-1.503 l 1.471,0.591 C -2.888,0.197 -2.808,0.128 -2.725,0.063 L -3.11,-1.462 c 0.511,-0.345 1.069,-0.632 1.668,-0.848 l 1.025,1.206 c 0.048,-0.014 0.095,-0.028 0.143,-0.038 0.049,-0.012 0.097,-0.021 0.146,-0.033 L 0.24,-2.712 c 0.633,-0.077 1.261,-0.075 1.871,0.002 l 0.347,1.532 c 0.104,0.024 0.207,0.047 0.309,0.076 L 3.81,-2.297 c 0.584,0.216 1.136,0.503 1.649,0.852 L 5.054,0.066 c 0.097,0.079 0.19,0.156 0.281,0.239 L 6.818,-0.268 C 7.224,0.18 7.581,0.677 7.875,1.218 L 6.816,2.365 c 0.061,0.132 0.116,0.271 0.166,0.412 l 1.578,0.18 z"/>
      </g>
      <g transform="matrix(4.5858755,0,0,-4.5998425,166.80205,765.89321)" id="g152">
        <path id="path154" style="fill:#4f4c4d;fill-opacity:1;fill-rule:nonzero;stroke:none" d="M 0,0 C -1.879,0.45 -3.037,2.335 -2.588,4.214 -2.139,6.093 -0.253,7.249 1.624,6.802 3.503,6.354 4.662,4.467 4.212,2.587 3.763,0.709 1.877,-0.447 0,0 M 5.975,2.063 C 5.983,2.098 5.992,2.128 5.999,2.161 6.091,2.542 6.138,2.923 6.146,3.299 L 5.122,3.664 C 5.115,3.786 5.102,3.904 5.084,4.025 L 5.999,4.649 C 5.901,5.048 5.759,5.432 5.578,5.795 L 4.501,5.643 C 4.429,5.759 4.353,5.873 4.272,5.983 L 4.789,6.954 C 4.522,7.254 4.222,7.521 3.891,7.756 L 3.007,7.119 C 2.883,7.192 2.753,7.262 2.62,7.322 L 2.625,8.416 C 2.44,8.483 2.249,8.541 2.052,8.588 1.854,8.635 1.659,8.669 1.462,8.694 L 0.973,7.717 C 0.826,7.722 0.68,7.718 0.536,7.71 l -0.5,0.969 C -0.366,8.62 -0.756,8.515 -1.128,8.368 l 0.022,-1.1 C -1.228,7.206 -1.348,7.142 -1.464,7.069 L -2.355,7.692 C -2.683,7.451 -2.983,7.173 -3.25,6.858 l 0.535,-0.967 c -0.071,-0.1 -0.136,-0.2 -0.198,-0.307 L -3.991,5.723 C -4.153,5.383 -4.284,5.021 -4.375,4.641 -4.383,4.609 -4.39,4.577 -4.396,4.544 L -3.472,3.933 C -3.485,3.83 -3.494,3.727 -3.499,3.625 L -4.52,3.243 c 0.012,-0.429 0.077,-0.851 0.189,-1.258 l 1.104,-0.111 c 0.031,-0.081 0.064,-0.159 0.1,-0.237 L -3.856,0.823 c 0.208,-0.378 0.463,-0.73 0.758,-1.048 l 1.026,0.413 C -2.018,0.137 -1.96,0.09 -1.902,0.043 l -0.269,-1.064 c 0.357,-0.241 0.746,-0.441 1.163,-0.592 l 0.716,0.842 c 0.033,-0.009 0.066,-0.018 0.1,-0.027 0.034,-0.008 0.068,-0.015 0.102,-0.021 l 0.257,-1.075 c 0.442,-0.052 0.88,-0.052 1.307,10e-4 l 0.242,1.071 c 0.072,0.016 0.144,0.033 0.215,0.051 l 0.728,-0.833 c 0.407,0.151 0.793,0.352 1.152,0.595 L 3.527,0.046 c 0.067,0.053 0.134,0.108 0.197,0.167 l 1.035,-0.4 C 5.042,0.124 5.29,0.471 5.496,0.85 L 4.757,1.651 c 0.042,0.093 0.081,0.188 0.116,0.287 l 1.102,0.125 z"/>
      </g>
      <g transform="matrix(4.5858755,0,0,-4.5998425,92.127032,827.12401)" id="g156">
        <path id="path158" style="fill:#4f4c4d;fill-opacity:1;fill-rule:nonzero;stroke:none" d="m 0,0 c -1.335,0.319 -2.159,1.661 -1.839,2.997 0.319,1.336 1.66,2.16 2.996,1.841 C 2.494,4.518 3.317,3.176 2.998,1.841 2.678,0.505 1.337,-0.318 0,0 M 4.25,1.468 C 4.258,1.49 4.263,1.515 4.269,1.537 4.334,1.809 4.367,2.079 4.373,2.346 L 3.645,2.607 C 3.641,2.692 3.631,2.778 3.618,2.864 L 4.269,3.308 C 4.199,3.592 4.099,3.863 3.968,4.121 L 3.203,4.014 C 3.151,4.098 3.097,4.178 3.04,4.256 L 3.408,4.947 C 3.218,5.16 3.005,5.352 2.769,5.518 L 2.14,5.063 C 2.052,5.117 1.96,5.165 1.865,5.208 L 1.869,5.987 C 1.737,6.035 1.601,6.076 1.461,6.11 1.321,6.143 1.182,6.166 1.041,6.185 L 0.693,5.488 C 0.589,5.492 0.485,5.491 0.382,5.483 L 0.027,6.175 C -0.259,6.13 -0.536,6.057 -0.801,5.953 L -0.785,5.171 C -0.872,5.127 -0.958,5.08 -1.04,5.027 L -1.674,5.472 C -1.906,5.299 -2.121,5.102 -2.311,4.878 L -1.93,4.19 C -1.98,4.12 -2.026,4.047 -2.071,3.972 L -2.837,4.07 C -2.954,3.829 -3.047,3.571 -3.112,3.301 -3.117,3.278 -3.121,3.255 -3.127,3.231 L -2.469,2.799 C -2.478,2.723 -2.484,2.649 -2.487,2.578 L -3.214,2.309 C -3.206,2.002 -3.16,1.701 -3.08,1.411 l 0.786,-0.078 c 0.022,-0.058 0.045,-0.114 0.07,-0.17 L -2.742,0.586 c 0.148,-0.271 0.329,-0.521 0.539,-0.747 l 0.73,0.294 C -1.434,0.097 -1.394,0.064 -1.352,0.03 l -0.192,-0.757 c 0.254,-0.17 0.53,-0.313 0.829,-0.421 l 0.508,0.598 c 0.024,-0.007 0.047,-0.012 0.071,-0.019 0.025,-0.003 0.05,-0.01 0.073,-0.015 L 0.12,-1.348 c 0.314,-0.037 0.626,-0.037 0.93,0.002 l 0.171,0.761 c 0.051,0.013 0.103,0.023 0.154,0.036 L 1.893,-1.14 c 0.289,0.108 0.564,0.249 0.819,0.421 L 2.51,0.031 c 0.048,0.039 0.095,0.08 0.14,0.12 l 0.736,-0.284 c 0.202,0.22 0.379,0.468 0.525,0.737 L 3.386,1.175 c 0.03,0.064 0.056,0.133 0.082,0.203 l 0.782,0.09 z"/>
      </g>
    </g>
  </g>
  <g transform="matrix(0.99642783,0,0,1.0091405,10.212423,109.7466)" id="g3425">
    <g transform="matrix(4.5998425,0,0,-4.5998425,-978.93843,1099.503)" id="g3968">
      <g id="g160" transform="translate(311.26808,236.48459)">
        <path d="m 0,0 4.576,0 4.274,-17.357 0.065,0 4.24,17.357 4.541,0 -6.191,-24.288 -5.281,0 L 0,0 Z" style="fill:#4f4c4d;fill-opacity:1;fill-rule:nonzero;stroke:none" id="path162" inkscape:connector-curvature="0"/>
      </g>
      <path d="m 331.82258,236.48499 4.642,0 0,-24.288 -4.642,0 0,24.288 z" style="fill:#4f4c4d;fill-opacity:1;fill-rule:nonzero;stroke:none" id="path164" inkscape:connector-curvature="0"/>
      <g id="g166" transform="translate(345.14208,219.39669)">
        <path d="m 0,0 c 0,-2.691 1.178,-3.432 3.03,-3.432 1.85,0 3.028,0.741 3.028,3.432 l 0,1.614 4.641,0 0,-1.01 c 0,-5.987 -3.164,-8.14 -7.669,-8.14 -4.509,0 -7.672,2.153 -7.672,8.14 l 0,8.68 c 0,5.987 3.163,8.141 7.672,8.141 4.505,0 7.669,-2.154 7.669,-8.141 l 0,-0.067 -4.641,0 0,0.672 C 6.058,12.58 4.88,13.32 3.03,13.32 1.178,13.32 0,12.58 0,9.889 L 0,0 Z" style="fill:#4f4c4d;fill-opacity:1;fill-rule:nonzero;stroke:none" id="path168" inkscape:connector-curvature="0"/>
      </g>
      <g id="g170" transform="translate(373.66838,236.48459)">
        <path d="m 0,0 0,-4.104 -5.415,0 0,-20.184 -4.642,0 0,20.184 -5.418,0 0,4.104 L 0,0 Z" style="fill:#4f4c4d;fill-opacity:1;fill-rule:nonzero;stroke:none" id="path172" inkscape:connector-curvature="0"/>
      </g>
      <g id="g174" transform="translate(380.66548,219.39669)">
        <path d="m 0,0 c 0,-2.691 1.178,-3.432 3.027,-3.432 1.85,0 3.028,0.741 3.028,3.432 l 0,9.889 C 6.055,12.58 4.877,13.32 3.027,13.32 1.178,13.32 0,12.58 0,9.889 L 0,0 Z m -4.642,9.284 c 0,5.987 3.162,8.141 7.669,8.141 4.509,0 7.67,-2.154 7.67,-8.141 l 0,-8.68 c 0,-5.987 -3.161,-8.14 -7.67,-8.14 -4.507,0 -7.669,2.153 -7.669,8.14 l 0,8.68 z" style="fill:#4f4c4d;fill-opacity:1;fill-rule:nonzero;stroke:none" id="path176" inkscape:connector-curvature="0"/>
      </g>
      <g id="g178" transform="translate(399.77198,225.92209)">
        <path d="M 0,0 2.389,0 C 4.44,0 5.687,1.01 5.687,3.363 5.687,5.719 4.44,6.729 2.389,6.729 L 0,6.729 0,0 Z m 6.257,-13.726 -4.035,9.891 -2.222,0 0,-9.891 -4.642,0 0,24.289 6.73,0 c 5.582,0 8.24,-2.691 8.24,-7.266 0,-3.027 -1.076,-5.215 -3.667,-6.191 l 4.577,-10.832 -4.981,0 z" style="fill:#4f4c4d;fill-opacity:1;fill-rule:nonzero;stroke:none" id="path180" inkscape:connector-curvature="0"/>
      </g>
      <path d="m 414.10258,236.48499 4.642,0 0,-24.288 -4.642,0 0,24.288 z" style="fill:#4f4c4d;fill-opacity:1;fill-rule:nonzero;stroke:none" id="path182" inkscape:connector-curvature="0"/>
      <g id="g184" transform="translate(428.16258,221.41429)">
        <path d="M 0,0 4.609,0 2.355,9.823 2.29,9.823 0,0 Z m -6.625,-9.218 6.021,24.288 5.954,0 5.852,-24.288 -4.439,0 -1.178,5.114 -6.424,0 -1.313,-5.114 -4.473,0 z" style="fill:#4f4c4d;fill-opacity:1;fill-rule:nonzero;stroke:none" id="path186" inkscape:connector-curvature="0"/>
      </g>
    </g>
    <g transform="matrix(4.5998425,0,0,-4.5998425,-894.30243,1099.503)" id="g3984">
      <g id="g190" transform="translate(264.19088,181.14579)">
        <path d="m 0,0 0,24.288 6.493,0 4.205,-15.945 0.067,0 4.205,15.945 6.492,0 0,-24.288 -3.969,0 0,19.107 -0.067,0 L 12.48,0 8.982,0 4.037,19.107 3.97,19.107 3.97,0 0,0 Z" style="fill:#4f4c4d;fill-opacity:1;fill-rule:nonzero;stroke:none" id="path192" inkscape:connector-curvature="0"/>
      </g>
      <g id="g194" transform="translate(295.07228,190.36259)">
        <path d="M 0,0 4.61,0 2.354,9.823 2.287,9.823 0,0 Z m -6.628,-9.217 6.022,24.288 5.954,0 5.855,-24.288 -4.44,0 -1.178,5.113 -6.427,0 -1.311,-5.113 -4.475,0 z" style="fill:#4f4c4d;fill-opacity:1;fill-rule:nonzero;stroke:none" id="path196" inkscape:connector-curvature="0"/>
      </g>
      <g id="g198" transform="translate(308.79688,181.14579)">
        <path d="m 0,0 0,24.288 4.642,0 0,-10.024 0.066,0 6.021,10.024 5.08,0 L 9.552,14.498 16.516,0 11.303,0 6.459,10.192 4.642,7.434 4.642,0 0,0 Z" style="fill:#4f4c4d;fill-opacity:1;fill-rule:nonzero;stroke:none" id="path200" inkscape:connector-curvature="0"/>
      </g>
      <g id="g202" transform="translate(327.49898,181.14579)">
        <path d="m 0,0 0,24.288 12.715,0 0,-4.104 -8.073,0 0,-5.584 6.155,0 0,-4.105 -6.155,0 0,-6.391 8.409,0 L 13.051,0 0,0 Z" style="fill:#4f4c4d;fill-opacity:1;fill-rule:nonzero;stroke:none" id="path204" inkscape:connector-curvature="0"/>
      </g>
      <g id="g206" transform="translate(348.96038,194.87039)">
        <path d="M 0,0 2.388,0 C 4.44,0 5.686,1.01 5.686,3.363 5.686,5.719 4.44,6.729 2.388,6.729 L 0,6.729 0,0 Z m 6.257,-13.725 -4.035,9.891 -2.222,0 0,-9.891 -4.642,0 0,24.288 6.729,0 c 5.582,0 8.241,-2.691 8.241,-7.266 0,-3.027 -1.077,-5.215 -3.667,-6.19 l 4.576,-10.832 -4.98,0 z" style="fill:#4f4c4d;fill-opacity:1;fill-rule:nonzero;stroke:none" id="path208" inkscape:connector-curvature="0"/>
      </g>
      <g id="g210" transform="translate(373.28168,198.67309)">
        <path d="m 0,0 c -0.773,2.286 -1.784,3.262 -3.398,3.262 -1.648,0 -2.555,-1.01 -2.555,-2.658 0,-3.666 10.36,-3.935 10.36,-11.538 0,-4.171 -2.86,-6.929 -7.737,-6.929 -3.768,0 -6.693,2.051 -7.94,6.829 l 4.577,0.974 c 0.538,-2.926 2.218,-3.969 3.597,-3.969 1.616,0 2.862,1.077 2.862,2.893 0,4.575 -10.364,4.643 -10.364,11.438 0,4.172 2.493,6.795 7.3,6.795 4.14,0 6.661,-2.455 7.47,-5.887 L 0,0 Z" style="fill:#4f4c4d;fill-opacity:1;fill-rule:nonzero;stroke:none" id="path212" inkscape:connector-curvature="0"/>
      </g>
      <g id="g214" transform="translate(386.63718,194.73659)">
        <path d="m 0,0 2.489,0 c 2.287,0 3.432,1.144 3.432,3.431 0,2.288 -1.145,3.431 -3.432,3.431 L 0,6.862 0,0 Z m -4.643,-13.591 0,24.288 6.695,0 c 5.719,0 8.511,-2.691 8.511,-7.266 0,-4.576 -2.792,-7.267 -8.511,-7.267 l -2.052,0 0,-9.755 -4.643,0 z" style="fill:#4f4c4d;fill-opacity:1;fill-rule:nonzero;stroke:none" id="path216" inkscape:connector-curvature="0"/>
      </g>
      <g id="g218" transform="translate(404.16158,190.36259)">
        <path d="M 0,0 4.609,0 2.355,9.823 2.289,9.823 0,0 Z m -6.626,-9.217 6.022,24.288 5.954,0 5.852,-24.288 -4.439,0 -1.178,5.113 -6.424,0 -1.314,-5.113 -4.473,0 z" style="fill:#4f4c4d;fill-opacity:1;fill-rule:nonzero;stroke:none" id="path220" inkscape:connector-curvature="0"/>
      </g>
      <g id="g222" transform="translate(422.12648,188.34499)">
        <path d="m 0,0 c 0,-2.691 1.177,-3.432 3.026,-3.432 1.851,0 3.028,0.741 3.028,3.432 l 0,1.614 4.642,0 0,-1.009 c 0,-5.988 -3.161,-8.14 -7.67,-8.14 -4.507,0 -7.669,2.152 -7.669,8.14 l 0,8.679 c 0,5.987 3.162,8.141 7.669,8.141 4.509,0 7.67,-2.154 7.67,-8.141 l 0,-0.067 -4.642,0 0,0.672 C 6.054,12.58 4.877,13.32 3.026,13.32 1.177,13.32 0,12.58 0,9.889 L 0,0 Z" style="fill:#4f4c4d;fill-opacity:1;fill-rule:nonzero;stroke:none" id="path224" inkscape:connector-curvature="0"/>
      </g>
      <g id="g226" transform="translate(436.59028,181.14579)">
        <path d="m 0,0 0,24.288 12.716,0 0,-4.104 -8.073,0 0,-5.584 6.155,0 0,-4.105 -6.155,0 0,-6.391 8.409,0 L 13.052,0 0,0 Z" style="fill:#4f4c4d;fill-opacity:1;fill-rule:nonzero;stroke:none" id="path228" inkscape:connector-curvature="0"/>
      </g>
    </g>
  </g>
</svg>